<svg width="270" height="595" viewBox="0 0 270 595" fill="none" xmlns="http://www.w3.org/2000/svg">
<g filter="url(#filter0_f_92_2)">
<rect x="270" y="15" width="115" height="115" rx="20" transform="rotate(90 270 15)" fill="#FFE69D"/>
</g>
<rect x="270" y="15" width="115" height="115" rx="20" transform="rotate(90 270 15)" fill="#FFE69D"/>
<rect x="115" y="170" width="115" height="115" rx="20" transform="rotate(90 115 170)" fill="#FF4630" fill-opacity="0.7"/>
<g filter="url(#filter1_f_92_2)">
<rect x="270" y="325" width="115" height="115" rx="20" transform="rotate(90 270 325)" fill="#6A7E6A"/>
</g>
<rect x="270" y="325" width="115" height="115" rx="20" transform="rotate(90 270 325)" fill="#6A7E6A"/>
<rect x="270" y="480" width="115" height="115" rx="20" transform="rotate(90 270 480)" fill="#FFE69D"/>
<line x1="212.5" y1="325" x2="212.5" y2="284" stroke="#E96D5E" stroke-width="5"/>
<line x1="212.5" y1="480" x2="212.5" y2="440" stroke="#E96D5E" stroke-width="5"/>
<line x1="212.5" y1="171" x2="212.5" y2="130" stroke="#E96D5E" stroke-width="5"/>
<line x1="156" y1="227.5" x2="115" y2="227.5" stroke="#E96D5E" stroke-width="5"/>
<rect x="270" y="170" width="115" height="115" rx="57.5" transform="rotate(90 270 170)" fill="#FF9760"/>
<defs>
<filter id="filter0_f_92_2" x="140" y="0" width="145" height="145" filterUnits="userSpaceOnUse" color-interpolation-filters="sRGB">
<feFlood flood-opacity="0" result="BackgroundImageFix"/>
<feBlend mode="normal" in="SourceGraphic" in2="BackgroundImageFix" result="shape"/>
<feGaussianBlur stdDeviation="7.5" result="effect1_foregroundBlur_92_2"/>
</filter>
<filter id="filter1_f_92_2" x="140" y="310" width="145" height="145" filterUnits="userSpaceOnUse" color-interpolation-filters="sRGB">
<feFlood flood-opacity="0" result="BackgroundImageFix"/>
<feBlend mode="normal" in="SourceGraphic" in2="BackgroundImageFix" result="shape"/>
<feGaussianBlur stdDeviation="7.5" result="effect1_foregroundBlur_92_2"/>
</filter>
</defs>
</svg>
