<svg width="125" height="125" viewBox="0 0 125 125" fill="none" xmlns="http://www.w3.org/2000/svg">
<g clip-path="url(#clip0_12_63)">
<path d="M111.328 16.4062C109.985 15.5373 108.449 15.0117 106.855 14.8754C105.261 14.7392 103.659 14.9966 102.187 15.625L53.9844 34.6093C52.8432 35.0738 51.6227 35.3126 50.3906 35.3125H19.5312C16.9412 35.3125 14.4573 36.3413 12.6259 38.1728C10.7945 40.0042 9.76562 42.4881 9.76562 45.0781V45.8593H0V69.2968H9.76562V70.3125C9.82682 72.8616 10.8827 75.2858 12.7075 77.0668C14.5323 78.8478 16.9813 79.8445 19.5312 79.8437L31.25 104.687C32.0435 106.36 33.2928 107.776 34.8544 108.771C36.416 109.766 38.2265 110.3 40.0781 110.312H45C47.5764 110.292 50.0403 109.254 51.8549 107.425C53.6694 105.596 54.6876 103.123 54.6875 100.547V80.7812L102.187 99.7656C103.356 100.231 104.602 100.469 105.859 100.469C107.81 100.437 109.71 99.8402 111.328 98.75C112.613 97.8824 113.673 96.7213 114.42 95.3627C115.167 94.0042 115.58 92.4873 115.625 90.9375V24.4531C115.618 22.8634 115.223 21.2994 114.474 19.8971C113.725 18.4948 112.645 17.2965 111.328 16.4062ZM44.9219 45.0781V70.3125H19.5312V45.0781H44.9219ZM44.9219 100.547H40L30.3906 79.8437H44.9219V100.547ZM57.5781 71.4843C56.6505 71.0103 55.6833 70.6182 54.6875 70.3125V44.5312C55.6738 44.3277 56.6409 44.0402 57.5781 43.6718L105.859 24.4531V90.7031L57.5781 71.4843ZM115.859 47.8125V67.3437C118.449 67.3437 120.933 66.3148 122.765 64.4834C124.596 62.652 125.625 60.1681 125.625 57.5781C125.625 54.9881 124.596 52.5042 122.765 50.6728C120.933 48.8413 118.449 47.8125 115.859 47.8125Z" fill="#FFE69D"/>
</g>
<defs>
<clipPath id="clip0_12_63">
<rect width="125" height="125" fill="white"/>
</clipPath>
</defs>
</svg>
