<svg width="222" height="80" viewBox="0 0 222 80" fill="none" xmlns="http://www.w3.org/2000/svg">
<g filter="url(#filter0_f_8_95)">
<path d="M15.608 35.224C13.496 35.224 11.5547 34.7333 9.784 33.752C8.03467 32.7707 6.63733 31.4053 5.592 29.656C4.568 27.8853 4.056 25.9013 4.056 23.704C4.056 21.5067 4.568 19.5333 5.592 17.784C6.63733 16.0347 8.03467 14.6693 9.784 13.688C11.5547 12.7067 13.496 12.216 15.608 12.216C17.72 12.216 19.6507 12.7067 21.4 13.688C23.1707 14.6693 24.5573 16.0347 25.56 17.784C26.584 19.5333 27.096 21.5067 27.096 23.704C27.096 25.9013 26.584 27.8853 25.56 29.656C24.536 31.4053 23.1493 32.7707 21.4 33.752C19.6507 34.7333 17.72 35.224 15.608 35.224ZM15.608 30.232C17.4 30.232 18.8293 29.6347 19.896 28.44C20.984 27.2453 21.528 25.6667 21.528 23.704C21.528 21.72 20.984 20.1413 19.896 18.968C18.8293 17.7733 17.4 17.176 15.608 17.176C13.7947 17.176 12.344 17.7627 11.256 18.936C10.1893 20.1093 9.656 21.6987 9.656 23.704C9.656 25.688 10.1893 27.2773 11.256 28.472C12.344 29.6453 13.7947 30.232 15.608 30.232ZM52.9243 16.952C55.1429 16.952 56.9029 17.624 58.2043 18.968C59.5269 20.312 60.1883 22.1787 60.1883 24.568V35H54.7483V25.304C54.7483 24.152 54.4389 23.2667 53.8203 22.648C53.2229 22.008 52.3909 21.688 51.3243 21.688C50.2576 21.688 49.4149 22.008 48.7963 22.648C48.1989 23.2667 47.9003 24.152 47.9003 25.304V35H42.4603V25.304C42.4603 24.152 42.1509 23.2667 41.5323 22.648C40.9349 22.008 40.1029 21.688 39.0363 21.688C37.9696 21.688 37.1269 22.008 36.5083 22.648C35.9109 23.2667 35.6123 24.152 35.6123 25.304V35H30.1403V17.144H35.6123V19.384C36.1669 18.6373 36.8923 18.0507 37.7883 17.624C38.6843 17.176 39.6976 16.952 40.8283 16.952C42.1723 16.952 43.3669 17.24 44.4123 17.816C45.4789 18.392 46.3109 19.2133 46.9083 20.28C47.5269 19.2987 48.3696 18.4987 49.4363 17.88C50.5029 17.2613 51.6656 16.952 52.9243 16.952ZM74.8953 16.952C76.9859 16.952 78.6499 17.6347 79.8873 19C81.1459 20.344 81.7753 22.2 81.7753 24.568V35H76.3353V25.304C76.3353 24.1093 76.0259 23.1813 75.4073 22.52C74.7886 21.8587 73.9566 21.528 72.9113 21.528C71.8659 21.528 71.0339 21.8587 70.4153 22.52C69.7966 23.1813 69.4873 24.1093 69.4873 25.304V35H64.0153V17.144H69.4873V19.512C70.0419 18.7227 70.7886 18.104 71.7273 17.656C72.6659 17.1867 73.7219 16.952 74.8953 16.952ZM88.3298 15.288C87.3698 15.288 86.5804 15.0107 85.9618 14.456C85.3644 13.88 85.0658 13.176 85.0658 12.344C85.0658 11.4907 85.3644 10.7867 85.9618 10.232C86.5804 9.656 87.3698 9.368 88.3298 9.368C89.2684 9.368 90.0364 9.656 90.6338 10.232C91.2524 10.7867 91.5618 11.4907 91.5618 12.344C91.5618 13.176 91.2524 13.88 90.6338 14.456C90.0364 15.0107 89.2684 15.288 88.3298 15.288ZM91.0498 17.144V35H85.5778V17.144H91.0498Z" fill="#FFE69D"/>
<path d="M35.456 62.776H42.624V67H29.984V44.536H35.456V62.776ZM44.146 58.04C44.146 56.2053 44.4873 54.5947 45.17 53.208C45.874 51.8213 46.8233 50.7547 48.018 50.008C49.2127 49.2613 50.546 48.888 52.018 48.888C53.2767 48.888 54.3753 49.144 55.314 49.656C56.274 50.168 57.01 50.84 57.522 51.672V49.144H62.994V67H57.522V64.472C56.9887 65.304 56.242 65.976 55.282 66.488C54.3433 67 53.2447 67.256 51.986 67.256C50.5353 67.256 49.2127 66.8827 48.018 66.136C46.8233 65.368 45.874 64.2907 45.17 62.904C44.4873 61.496 44.146 59.8747 44.146 58.04ZM57.522 58.072C57.522 56.7067 57.138 55.6293 56.37 54.84C55.6233 54.0507 54.706 53.656 53.618 53.656C52.53 53.656 51.602 54.0507 50.834 54.84C50.0873 55.608 49.714 56.6747 49.714 58.04C49.714 59.4053 50.0873 60.4933 50.834 61.304C51.602 62.0933 52.53 62.488 53.618 62.488C54.706 62.488 55.6233 62.0933 56.37 61.304C57.138 60.5147 57.522 59.4373 57.522 58.072ZM72.4248 51.672C72.9368 50.84 73.6728 50.168 74.6328 49.656C75.5928 49.144 76.6914 48.888 77.9288 48.888C79.4008 48.888 80.7341 49.2613 81.9288 50.008C83.1234 50.7547 84.0621 51.8213 84.7448 53.208C85.4488 54.5947 85.8008 56.2053 85.8008 58.04C85.8008 59.8747 85.4488 61.496 84.7448 62.904C84.0621 64.2907 83.1234 65.368 81.9288 66.136C80.7341 66.8827 79.4008 67.256 77.9288 67.256C76.6701 67.256 75.5714 67.0107 74.6328 66.52C73.6941 66.008 72.9581 65.336 72.4248 64.504V67H66.9528V43.32H72.4248V51.672ZM80.2328 58.04C80.2328 56.6747 79.8488 55.608 79.0808 54.84C78.3341 54.0507 77.4061 53.656 76.2968 53.656C75.2088 53.656 74.2808 54.0507 73.5128 54.84C72.7661 55.6293 72.3928 56.7067 72.3928 58.072C72.3928 59.4373 72.7661 60.5147 73.5128 61.304C74.2808 62.0933 75.2088 62.488 76.2968 62.488C77.3848 62.488 78.3128 62.0933 79.0808 61.304C79.8488 60.4933 80.2328 59.4053 80.2328 58.04ZM95.9355 67.256C94.3782 67.256 92.9915 66.9893 91.7755 66.456C90.5595 65.9227 89.5995 65.1973 88.8955 64.28C88.1915 63.3413 87.7968 62.296 87.7115 61.144H93.1195C93.1835 61.7627 93.4715 62.264 93.9835 62.648C94.4955 63.032 95.1248 63.224 95.8715 63.224C96.5542 63.224 97.0768 63.096 97.4395 62.84C97.8235 62.5627 98.0155 62.2107 98.0155 61.784C98.0155 61.272 97.7488 60.8987 97.2155 60.664C96.6822 60.408 95.8182 60.1307 94.6235 59.832C93.3435 59.5333 92.2768 59.224 91.4235 58.904C90.5702 58.5627 89.8342 58.04 89.2155 57.336C88.5968 56.6107 88.2875 55.64 88.2875 54.424C88.2875 53.4 88.5648 52.472 89.1195 51.64C89.6955 50.7867 90.5275 50.1147 91.6155 49.624C92.7248 49.1333 94.0368 48.888 95.5515 48.888C97.7915 48.888 99.5515 49.4427 100.832 50.552C102.133 51.6613 102.88 53.1333 103.072 54.968H98.0155C97.9302 54.3493 97.6528 53.8587 97.1835 53.496C96.7355 53.1333 96.1382 52.952 95.3915 52.952C94.7515 52.952 94.2608 53.08 93.9195 53.336C93.5782 53.5707 93.4075 53.9013 93.4075 54.328C93.4075 54.84 93.6742 55.224 94.2075 55.48C94.7622 55.736 95.6155 55.992 96.7675 56.248C98.0902 56.5893 99.1675 56.9307 99.9995 57.272C100.832 57.592 101.557 58.1253 102.176 58.872C102.816 59.5973 103.146 60.5787 103.168 61.816C103.168 62.8613 102.869 63.8 102.272 64.632C101.696 65.4427 100.853 66.0827 99.7435 66.552C98.6555 67.0213 97.3862 67.256 95.9355 67.256ZM121.713 44.536C124.081 44.536 126.15 45.0053 127.921 45.944C129.691 46.8827 131.057 48.2053 132.017 49.912C132.998 51.5973 133.489 53.5493 133.489 55.768C133.489 57.9653 132.998 59.9173 132.017 61.624C131.057 63.3307 129.681 64.6533 127.889 65.592C126.118 66.5307 124.059 67 121.713 67H113.297V44.536H121.713ZM121.361 62.264C123.43 62.264 125.041 61.6987 126.193 60.568C127.345 59.4373 127.921 57.8373 127.921 55.768C127.921 53.6987 127.345 52.088 126.193 50.936C125.041 49.784 123.43 49.208 121.361 49.208H118.769V62.264H121.361ZM139.299 47.288C138.339 47.288 137.549 47.0107 136.931 46.456C136.333 45.88 136.035 45.176 136.035 44.344C136.035 43.4907 136.333 42.7867 136.931 42.232C137.549 41.656 138.339 41.368 139.299 41.368C140.237 41.368 141.005 41.656 141.603 42.232C142.221 42.7867 142.531 43.4907 142.531 44.344C142.531 45.176 142.221 45.88 141.603 46.456C141.005 47.0107 140.237 47.288 139.299 47.288ZM142.019 49.144V67H136.547V49.144H142.019ZM152.768 48.888C154.027 48.888 155.125 49.144 156.064 49.656C157.024 50.168 157.76 50.84 158.272 51.672V49.144H163.744V66.968C163.744 68.6107 163.413 70.0933 162.752 71.416C162.112 72.76 161.12 73.8267 159.776 74.616C158.453 75.4053 156.8 75.8 154.816 75.8C152.171 75.8 150.027 75.1707 148.384 73.912C146.741 72.6747 145.803 70.9893 145.568 68.856H150.976C151.147 69.5387 151.552 70.072 152.192 70.456C152.832 70.8613 153.621 71.064 154.56 71.064C155.691 71.064 156.587 70.7333 157.248 70.072C157.931 69.432 158.272 68.3973 158.272 66.968V64.44C157.739 65.272 157.003 65.9547 156.064 66.488C155.125 67 154.027 67.256 152.768 67.256C151.296 67.256 149.963 66.8827 148.768 66.136C147.573 65.368 146.624 64.2907 145.92 62.904C145.237 61.496 144.896 59.8747 144.896 58.04C144.896 56.2053 145.237 54.5947 145.92 53.208C146.624 51.8213 147.573 50.7547 148.768 50.008C149.963 49.2613 151.296 48.888 152.768 48.888ZM158.272 58.072C158.272 56.7067 157.888 55.6293 157.12 54.84C156.373 54.0507 155.456 53.656 154.368 53.656C153.28 53.656 152.352 54.0507 151.584 54.84C150.837 55.608 150.464 56.6747 150.464 58.04C150.464 59.4053 150.837 60.4933 151.584 61.304C152.352 62.0933 153.28 62.488 154.368 62.488C155.456 62.488 156.373 62.0933 157.12 61.304C157.888 60.5147 158.272 59.4373 158.272 58.072ZM170.455 47.288C169.495 47.288 168.705 47.0107 168.087 46.456C167.489 45.88 167.191 45.176 167.191 44.344C167.191 43.4907 167.489 42.7867 168.087 42.232C168.705 41.656 169.495 41.368 170.455 41.368C171.393 41.368 172.161 41.656 172.759 42.232C173.377 42.7867 173.687 43.4907 173.687 44.344C173.687 45.176 173.377 45.88 172.759 46.456C172.161 47.0107 171.393 47.288 170.455 47.288ZM173.175 49.144V67H167.703V49.144H173.175ZM187.092 62.36V67H184.308C182.324 67 180.778 66.52 179.668 65.56C178.559 64.5787 178.004 62.9893 178.004 60.792V53.688H175.828V49.144H178.004V44.792H183.476V49.144H187.06V53.688H183.476V60.856C183.476 61.3893 183.604 61.7733 183.86 62.008C184.116 62.2427 184.543 62.36 185.14 62.36H187.092ZM189.052 58.04C189.052 56.2053 189.394 54.5947 190.076 53.208C190.78 51.8213 191.73 50.7547 192.924 50.008C194.119 49.2613 195.452 48.888 196.924 48.888C198.183 48.888 199.282 49.144 200.22 49.656C201.18 50.168 201.916 50.84 202.428 51.672V49.144H207.9V67H202.428V64.472C201.895 65.304 201.148 65.976 200.188 66.488C199.25 67 198.151 67.256 196.892 67.256C195.442 67.256 194.119 66.8827 192.924 66.136C191.73 65.368 190.78 64.2907 190.076 62.904C189.394 61.496 189.052 59.8747 189.052 58.04ZM202.428 58.072C202.428 56.7067 202.044 55.6293 201.276 54.84C200.53 54.0507 199.612 53.656 198.524 53.656C197.436 53.656 196.508 54.0507 195.74 54.84C194.994 55.608 194.62 56.6747 194.62 58.04C194.62 59.4053 194.994 60.4933 195.74 61.304C196.508 62.0933 197.436 62.488 198.524 62.488C199.612 62.488 200.53 62.0933 201.276 61.304C202.044 60.5147 202.428 59.4373 202.428 58.072ZM217.331 43.32V67H211.859V43.32H217.331Z" fill="#FFE69D"/>
</g>
<path d="M15.608 35.224C13.496 35.224 11.5547 34.7333 9.784 33.752C8.03467 32.7707 6.63733 31.4053 5.592 29.656C4.568 27.8853 4.056 25.9013 4.056 23.704C4.056 21.5067 4.568 19.5333 5.592 17.784C6.63733 16.0347 8.03467 14.6693 9.784 13.688C11.5547 12.7067 13.496 12.216 15.608 12.216C17.72 12.216 19.6507 12.7067 21.4 13.688C23.1707 14.6693 24.5573 16.0347 25.56 17.784C26.584 19.5333 27.096 21.5067 27.096 23.704C27.096 25.9013 26.584 27.8853 25.56 29.656C24.536 31.4053 23.1493 32.7707 21.4 33.752C19.6507 34.7333 17.72 35.224 15.608 35.224ZM15.608 30.232C17.4 30.232 18.8293 29.6347 19.896 28.44C20.984 27.2453 21.528 25.6667 21.528 23.704C21.528 21.72 20.984 20.1413 19.896 18.968C18.8293 17.7733 17.4 17.176 15.608 17.176C13.7947 17.176 12.344 17.7627 11.256 18.936C10.1893 20.1093 9.656 21.6987 9.656 23.704C9.656 25.688 10.1893 27.2773 11.256 28.472C12.344 29.6453 13.7947 30.232 15.608 30.232ZM52.9243 16.952C55.1429 16.952 56.9029 17.624 58.2043 18.968C59.5269 20.312 60.1883 22.1787 60.1883 24.568V35H54.7483V25.304C54.7483 24.152 54.4389 23.2667 53.8203 22.648C53.2229 22.008 52.3909 21.688 51.3243 21.688C50.2576 21.688 49.4149 22.008 48.7963 22.648C48.1989 23.2667 47.9003 24.152 47.9003 25.304V35H42.4603V25.304C42.4603 24.152 42.1509 23.2667 41.5323 22.648C40.9349 22.008 40.1029 21.688 39.0363 21.688C37.9696 21.688 37.1269 22.008 36.5083 22.648C35.9109 23.2667 35.6123 24.152 35.6123 25.304V35H30.1403V17.144H35.6123V19.384C36.1669 18.6373 36.8923 18.0507 37.7883 17.624C38.6843 17.176 39.6976 16.952 40.8283 16.952C42.1723 16.952 43.3669 17.24 44.4123 17.816C45.4789 18.392 46.3109 19.2133 46.9083 20.28C47.5269 19.2987 48.3696 18.4987 49.4363 17.88C50.5029 17.2613 51.6656 16.952 52.9243 16.952ZM74.8953 16.952C76.9859 16.952 78.6499 17.6347 79.8873 19C81.1459 20.344 81.7753 22.2 81.7753 24.568V35H76.3353V25.304C76.3353 24.1093 76.0259 23.1813 75.4073 22.52C74.7886 21.8587 73.9566 21.528 72.9113 21.528C71.8659 21.528 71.0339 21.8587 70.4153 22.52C69.7966 23.1813 69.4873 24.1093 69.4873 25.304V35H64.0153V17.144H69.4873V19.512C70.0419 18.7227 70.7886 18.104 71.7273 17.656C72.6659 17.1867 73.7219 16.952 74.8953 16.952ZM88.3298 15.288C87.3698 15.288 86.5804 15.0107 85.9618 14.456C85.3644 13.88 85.0658 13.176 85.0658 12.344C85.0658 11.4907 85.3644 10.7867 85.9618 10.232C86.5804 9.656 87.3698 9.368 88.3298 9.368C89.2684 9.368 90.0364 9.656 90.6338 10.232C91.2524 10.7867 91.5618 11.4907 91.5618 12.344C91.5618 13.176 91.2524 13.88 90.6338 14.456C90.0364 15.0107 89.2684 15.288 88.3298 15.288ZM91.0498 17.144V35H85.5778V17.144H91.0498Z" fill="#FFE69D"/>
<path d="M35.456 62.776H42.624V67H29.984V44.536H35.456V62.776ZM44.146 58.04C44.146 56.2053 44.4873 54.5947 45.17 53.208C45.874 51.8213 46.8233 50.7547 48.018 50.008C49.2127 49.2613 50.546 48.888 52.018 48.888C53.2767 48.888 54.3753 49.144 55.314 49.656C56.274 50.168 57.01 50.84 57.522 51.672V49.144H62.994V67H57.522V64.472C56.9887 65.304 56.242 65.976 55.282 66.488C54.3433 67 53.2447 67.256 51.986 67.256C50.5353 67.256 49.2127 66.8827 48.018 66.136C46.8233 65.368 45.874 64.2907 45.17 62.904C44.4873 61.496 44.146 59.8747 44.146 58.04ZM57.522 58.072C57.522 56.7067 57.138 55.6293 56.37 54.84C55.6233 54.0507 54.706 53.656 53.618 53.656C52.53 53.656 51.602 54.0507 50.834 54.84C50.0873 55.608 49.714 56.6747 49.714 58.04C49.714 59.4053 50.0873 60.4933 50.834 61.304C51.602 62.0933 52.53 62.488 53.618 62.488C54.706 62.488 55.6233 62.0933 56.37 61.304C57.138 60.5147 57.522 59.4373 57.522 58.072ZM72.4248 51.672C72.9368 50.84 73.6728 50.168 74.6328 49.656C75.5928 49.144 76.6914 48.888 77.9288 48.888C79.4008 48.888 80.7341 49.2613 81.9288 50.008C83.1234 50.7547 84.0621 51.8213 84.7448 53.208C85.4488 54.5947 85.8008 56.2053 85.8008 58.04C85.8008 59.8747 85.4488 61.496 84.7448 62.904C84.0621 64.2907 83.1234 65.368 81.9288 66.136C80.7341 66.8827 79.4008 67.256 77.9288 67.256C76.6701 67.256 75.5714 67.0107 74.6328 66.52C73.6941 66.008 72.9581 65.336 72.4248 64.504V67H66.9528V43.32H72.4248V51.672ZM80.2328 58.04C80.2328 56.6747 79.8488 55.608 79.0808 54.84C78.3341 54.0507 77.4061 53.656 76.2968 53.656C75.2088 53.656 74.2808 54.0507 73.5128 54.84C72.7661 55.6293 72.3928 56.7067 72.3928 58.072C72.3928 59.4373 72.7661 60.5147 73.5128 61.304C74.2808 62.0933 75.2088 62.488 76.2968 62.488C77.3848 62.488 78.3128 62.0933 79.0808 61.304C79.8488 60.4933 80.2328 59.4053 80.2328 58.04ZM95.9355 67.256C94.3782 67.256 92.9915 66.9893 91.7755 66.456C90.5595 65.9227 89.5995 65.1973 88.8955 64.28C88.1915 63.3413 87.7968 62.296 87.7115 61.144H93.1195C93.1835 61.7627 93.4715 62.264 93.9835 62.648C94.4955 63.032 95.1248 63.224 95.8715 63.224C96.5542 63.224 97.0768 63.096 97.4395 62.84C97.8235 62.5627 98.0155 62.2107 98.0155 61.784C98.0155 61.272 97.7488 60.8987 97.2155 60.664C96.6822 60.408 95.8182 60.1307 94.6235 59.832C93.3435 59.5333 92.2768 59.224 91.4235 58.904C90.5702 58.5627 89.8342 58.04 89.2155 57.336C88.5968 56.6107 88.2875 55.64 88.2875 54.424C88.2875 53.4 88.5648 52.472 89.1195 51.64C89.6955 50.7867 90.5275 50.1147 91.6155 49.624C92.7248 49.1333 94.0368 48.888 95.5515 48.888C97.7915 48.888 99.5515 49.4427 100.832 50.552C102.133 51.6613 102.88 53.1333 103.072 54.968H98.0155C97.9302 54.3493 97.6528 53.8587 97.1835 53.496C96.7355 53.1333 96.1382 52.952 95.3915 52.952C94.7515 52.952 94.2608 53.08 93.9195 53.336C93.5782 53.5707 93.4075 53.9013 93.4075 54.328C93.4075 54.84 93.6742 55.224 94.2075 55.48C94.7622 55.736 95.6155 55.992 96.7675 56.248C98.0902 56.5893 99.1675 56.9307 99.9995 57.272C100.832 57.592 101.557 58.1253 102.176 58.872C102.816 59.5973 103.146 60.5787 103.168 61.816C103.168 62.8613 102.869 63.8 102.272 64.632C101.696 65.4427 100.853 66.0827 99.7435 66.552C98.6555 67.0213 97.3862 67.256 95.9355 67.256ZM121.713 44.536C124.081 44.536 126.15 45.0053 127.921 45.944C129.691 46.8827 131.057 48.2053 132.017 49.912C132.998 51.5973 133.489 53.5493 133.489 55.768C133.489 57.9653 132.998 59.9173 132.017 61.624C131.057 63.3307 129.681 64.6533 127.889 65.592C126.118 66.5307 124.059 67 121.713 67H113.297V44.536H121.713ZM121.361 62.264C123.43 62.264 125.041 61.6987 126.193 60.568C127.345 59.4373 127.921 57.8373 127.921 55.768C127.921 53.6987 127.345 52.088 126.193 50.936C125.041 49.784 123.43 49.208 121.361 49.208H118.769V62.264H121.361ZM139.299 47.288C138.339 47.288 137.549 47.0107 136.931 46.456C136.333 45.88 136.035 45.176 136.035 44.344C136.035 43.4907 136.333 42.7867 136.931 42.232C137.549 41.656 138.339 41.368 139.299 41.368C140.237 41.368 141.005 41.656 141.603 42.232C142.221 42.7867 142.531 43.4907 142.531 44.344C142.531 45.176 142.221 45.88 141.603 46.456C141.005 47.0107 140.237 47.288 139.299 47.288ZM142.019 49.144V67H136.547V49.144H142.019ZM152.768 48.888C154.027 48.888 155.125 49.144 156.064 49.656C157.024 50.168 157.76 50.84 158.272 51.672V49.144H163.744V66.968C163.744 68.6107 163.413 70.0933 162.752 71.416C162.112 72.76 161.12 73.8267 159.776 74.616C158.453 75.4053 156.8 75.8 154.816 75.8C152.171 75.8 150.027 75.1707 148.384 73.912C146.741 72.6747 145.803 70.9893 145.568 68.856H150.976C151.147 69.5387 151.552 70.072 152.192 70.456C152.832 70.8613 153.621 71.064 154.56 71.064C155.691 71.064 156.587 70.7333 157.248 70.072C157.931 69.432 158.272 68.3973 158.272 66.968V64.44C157.739 65.272 157.003 65.9547 156.064 66.488C155.125 67 154.027 67.256 152.768 67.256C151.296 67.256 149.963 66.8827 148.768 66.136C147.573 65.368 146.624 64.2907 145.92 62.904C145.237 61.496 144.896 59.8747 144.896 58.04C144.896 56.2053 145.237 54.5947 145.92 53.208C146.624 51.8213 147.573 50.7547 148.768 50.008C149.963 49.2613 151.296 48.888 152.768 48.888ZM158.272 58.072C158.272 56.7067 157.888 55.6293 157.12 54.84C156.373 54.0507 155.456 53.656 154.368 53.656C153.28 53.656 152.352 54.0507 151.584 54.84C150.837 55.608 150.464 56.6747 150.464 58.04C150.464 59.4053 150.837 60.4933 151.584 61.304C152.352 62.0933 153.28 62.488 154.368 62.488C155.456 62.488 156.373 62.0933 157.12 61.304C157.888 60.5147 158.272 59.4373 158.272 58.072ZM170.455 47.288C169.495 47.288 168.705 47.0107 168.087 46.456C167.489 45.88 167.191 45.176 167.191 44.344C167.191 43.4907 167.489 42.7867 168.087 42.232C168.705 41.656 169.495 41.368 170.455 41.368C171.393 41.368 172.161 41.656 172.759 42.232C173.377 42.7867 173.687 43.4907 173.687 44.344C173.687 45.176 173.377 45.88 172.759 46.456C172.161 47.0107 171.393 47.288 170.455 47.288ZM173.175 49.144V67H167.703V49.144H173.175ZM187.092 62.36V67H184.308C182.324 67 180.778 66.52 179.668 65.56C178.559 64.5787 178.004 62.9893 178.004 60.792V53.688H175.828V49.144H178.004V44.792H183.476V49.144H187.06V53.688H183.476V60.856C183.476 61.3893 183.604 61.7733 183.86 62.008C184.116 62.2427 184.543 62.36 185.14 62.36H187.092ZM189.052 58.04C189.052 56.2053 189.394 54.5947 190.076 53.208C190.78 51.8213 191.73 50.7547 192.924 50.008C194.119 49.2613 195.452 48.888 196.924 48.888C198.183 48.888 199.282 49.144 200.22 49.656C201.18 50.168 201.916 50.84 202.428 51.672V49.144H207.9V67H202.428V64.472C201.895 65.304 201.148 65.976 200.188 66.488C199.25 67 198.151 67.256 196.892 67.256C195.442 67.256 194.119 66.8827 192.924 66.136C191.73 65.368 190.78 64.2907 190.076 62.904C189.394 61.496 189.052 59.8747 189.052 58.04ZM202.428 58.072C202.428 56.7067 202.044 55.6293 201.276 54.84C200.53 54.0507 199.612 53.656 198.524 53.656C197.436 53.656 196.508 54.0507 195.74 54.84C194.994 55.608 194.62 56.6747 194.62 58.04C194.62 59.4053 194.994 60.4933 195.74 61.304C196.508 62.0933 197.436 62.488 198.524 62.488C199.612 62.488 200.53 62.0933 201.276 61.304C202.044 60.5147 202.428 59.4373 202.428 58.072ZM217.331 43.32V67H211.859V43.32H217.331Z" fill="#FFE69D"/>
<defs>
<filter id="filter0_f_8_95" x="0.0560303" y="5.36801" width="221.275" height="74.432" filterUnits="userSpaceOnUse" color-interpolation-filters="sRGB">
<feFlood flood-opacity="0" result="BackgroundImageFix"/>
<feBlend mode="normal" in="SourceGraphic" in2="BackgroundImageFix" result="shape"/>
<feGaussianBlur stdDeviation="2" result="effect1_foregroundBlur_8_95"/>
</filter>
</defs>
</svg>
