<?xml version="1.0" encoding="utf-8"?>
<!-- Generator: Adobe Illustrator 23.0.1, SVG Export Plug-In . SVG Version: 6.00 Build 0)  -->
<svg version="1.1" id="レイヤー_1" xmlns="http://www.w3.org/2000/svg" xmlns:xlink="http://www.w3.org/1999/xlink" x="0px"
	 y="0px" viewBox="0 0 992.5 992.5" style="enable-background:new 0 0 992.5 992.5;" xml:space="preserve">
<style type="text/css">
	.st0{fill:#231815;fill-opacity:0.33;}
	.st1{fill:#FFFFFF;}
	.st2{fill:#036EB8;}
	.st3{fill:#1A3168;}
</style>
<g id="円アウトライン">
	<circle class="st0" cx="496.2" cy="496.2" r="484.7"/>
	<path class="st1" d="M496.4,992.5v-23c2,0,3.9,0,5.9,0l0.3,23C500.5,992.5,498.4,992.5,496.4,992.5z M490.2,992.5
		c-2,0-4.1-0.1-6.1-0.1l0.5-23c2,0,3.9,0.1,5.9,0.1L490.2,992.5z M508.6,992.3l-0.6-23c1.9,0,3.9-0.1,5.8-0.2l0.8,23
		C512.7,992.2,510.7,992.2,508.6,992.3L508.6,992.3z M478,992.1c-2.1-0.1-4.1-0.2-6.1-0.3l1.1-23l5.9,0.2L478,992.1z M520.9,991.8
		l-1.1-23c2-0.1,3.9-0.2,5.8-0.3l1.4,23C525,991.6,522.9,991.8,520.9,991.8L520.9,991.8z M465.7,991.5c-2-0.1-4.1-0.3-6.1-0.4
		l1.7-22.9c1.9,0.1,3.9,0.3,5.8,0.4L465.7,991.5z M533.1,991.1l-1.7-22.9c1.9-0.1,3.9-0.3,5.8-0.5l2,22.9
		C537.2,990.8,535.2,991,533.1,991.1L533.1,991.1z M453.5,990.6c-2-0.2-4.1-0.4-6.1-0.6l2.2-22.9c1.9,0.2,3.9,0.4,5.8,0.5
		L453.5,990.6z M545.4,990l-2.2-22.9c1.9-0.2,3.9-0.4,5.8-0.6l2.5,22.9C549.4,989.6,547.4,989.8,545.4,990L545.4,990z M441.3,989.4
		c-2-0.2-4.1-0.5-6.1-0.7l2.8-22.8c1.9,0.2,3.9,0.5,5.8,0.7L441.3,989.4z M557.6,988.7l-2.8-22.8c1.9-0.2,3.9-0.5,5.8-0.8l3.1,22.8
		C561.6,988.2,559.6,988.5,557.6,988.7L557.6,988.7z M429.1,987.9c-2-0.3-4-0.6-6.1-0.9l3.4-22.8c1.9,0.3,3.9,0.6,5.8,0.8
		L429.1,987.9z M569.7,987l-3.4-22.8c1.9-0.3,3.9-0.6,5.8-0.9l3.7,22.7C573.8,986.4,571.7,986.7,569.7,987L569.7,987z M417,986.1
		c-2-0.3-4-0.7-6.1-1l3.9-22.7c1.9,0.3,3.8,0.7,5.8,1L417,986.1z M581.9,985.1l-4-22.7c1.9-0.3,3.9-0.7,5.8-1l4.2,22.6
		C585.9,984.4,583.9,984.7,581.9,985.1L581.9,985.1z M404.9,984.1c-2-0.4-4-0.8-6-1.2l4.5-22.6c1.9,0.4,3.8,0.8,5.8,1.1L404.9,984.1
		z M593.9,982.9l-4.5-22.6c1.9-0.4,3.8-0.8,5.7-1.2l4.8,22.5C597.9,982,595.9,982.4,593.9,982.9L593.9,982.9z M392.8,981.7
		c-2-0.4-4-0.9-6-1.3l5-22.4c1.9,0.4,3.8,0.9,5.7,1.2L392.8,981.7z M605.9,980.3l-5-22.4c1.9-0.4,3.8-0.9,5.7-1.3l5.3,22.4
		L605.9,980.3z M380.8,979c-2-0.5-4-1-6-1.5l5.6-22.3c1.9,0.5,3.8,0.9,5.7,1.4L380.8,979z M617.8,977.5l-5.6-22.3
		c1.9-0.5,3.8-1,5.7-1.5l5.9,22.2L617.8,977.5z M368.9,976c-2-0.5-4-1.1-5.9-1.6l6.2-22.2c1.9,0.5,3.8,1,5.6,1.5L368.9,976z
		 M629.7,974.3l-6.2-22.2c1.9-0.5,3.8-1.1,5.6-1.6l6.4,22.1C633.7,973.2,631.7,973.7,629.7,974.3L629.7,974.3z M357.1,972.7
		c-2-0.6-3.9-1.2-5.9-1.8l6.7-22c1.9,0.6,3.7,1.1,5.6,1.7L357.1,972.7z M641.5,970.9l-6.7-22c1.9-0.6,3.7-1.2,5.6-1.8l7,21.9
		C645.4,969.6,643.5,970.2,641.5,970.9L641.5,970.9z M345.3,969.1c-2-0.6-3.9-1.3-5.9-1.9l7.3-21.8c1.9,0.6,3.7,1.2,5.6,1.8
		L345.3,969.1z M653.2,967.1l-7.3-21.8c1.8-0.6,3.7-1.2,5.5-1.9l7.5,21.7C657.1,965.8,655.1,966.5,653.2,967.1L653.2,967.1z
		 M333.6,965.2c-1.9-0.7-3.9-1.3-5.8-2l7.8-21.6c1.8,0.7,3.7,1.3,5.5,2L333.6,965.2z M664.8,963.1l-7.8-21.6c1.8-0.7,3.7-1.3,5.5-2
		l8,21.5C668.6,961.7,666.7,962.4,664.8,963.1L664.8,963.1z M322,961c-1.9-0.7-3.8-1.5-5.8-2.2l8.4-21.4c1.8,0.7,3.6,1.4,5.5,2.1
		L322,961z M676.2,958.8l-8.3-21.4c1.8-0.7,3.6-1.4,5.4-2.2l8.7,21.3C680.1,957.3,678.2,958,676.2,958.8L676.2,958.8z M310.5,956.5
		c-1.9-0.8-3.8-1.5-5.7-2.3l8.9-21.2c1.8,0.8,3.6,1.5,5.4,2.2L310.5,956.5z M687.6,954.2l-8.8-21.2l5.4-2.3l9.1,21.1
		C691.4,952.6,689.5,953.4,687.6,954.2L687.6,954.2z M299.2,951.8c-1.9-0.8-3.8-1.6-5.6-2.5l9.4-21c1.8,0.8,3.6,1.6,5.4,2.4
		L299.2,951.8z M698.9,949.3l-9.4-21c1.8-0.8,3.5-1.6,5.3-2.4l9.7,20.9C702.6,947.6,700.7,948.5,698.9,949.3z M288,946.8
		c-1.9-0.9-3.7-1.7-5.6-2.6l9.9-20.8l5.3,2.5L288,946.8z M710,944.2l-10-20.8c1.8-0.8,3.5-1.7,5.2-2.5l10.2,20.6
		C713.6,942.4,711.8,943.3,710,944.2z M276.9,941.5c-1.8-0.9-3.7-1.8-5.5-2.8l10.4-20.5c1.8,0.9,3.5,1.8,5.2,2.6L276.9,941.5z
		 M721,938.8l-10.5-20.5c1.7-0.9,3.5-1.8,5.2-2.7l10.7,20.4C724.6,936.9,722.8,937.9,721,938.8L721,938.8z M266,935.9
		c-1.8-1-3.6-1.9-5.4-2.9l10.9-20.2c1.7,0.9,3.4,1.8,5.2,2.8L266,935.9z M731.8,933.1l-10.9-20.2c1.7-0.9,3.4-1.9,5.1-2.8l11.2,20.1
		L731.8,933.1z M255.1,930c-1.8-1-3.6-2-5.4-3l11.4-20c1.7,1,3.4,1.9,5.1,2.9L255.1,930z M742.5,927.1l-11.4-20l5-2.9l11.7,19.8
		C746,925.1,744.2,926.1,742.5,927.1L742.5,927.1z M244.4,923.9c-1.8-1-3.5-2.1-5.3-3.2L251,901c1.7,1,3.4,2,5,3L244.4,923.9z
		 M753,920.9l-11.9-19.6c1.7-1,3.3-2,5-3l12.2,19.5C756.5,918.8,754.8,919.9,753,920.9L753,920.9z M233.9,917.5
		c-1.7-1.1-3.5-2.2-5.2-3.3l12.4-19.4c1.6,1.1,3.3,2.1,4.9,3.1L233.9,917.5z M763.4,914.5L751,895.1c1.6-1,3.3-2.1,4.9-3.2
		l12.6,19.2C766.8,912.2,765.1,913.3,763.4,914.5z M223.5,910.9c-1.7-1.1-3.4-2.3-5.1-3.4l12.9-19c1.6,1.1,3.2,2.2,4.9,3.3
		L223.5,910.9z M773.6,907.7l-12.9-19.1c1.6-1.1,3.2-2.2,4.8-3.3l13.1,18.9C777,905.4,775.3,906.6,773.6,907.7L773.6,907.7z
		 M213.4,904c-1.7-1.2-3.3-2.3-5-3.5l13.4-18.7c1.6,1.1,3.2,2.2,4.8,3.4L213.4,904z M783.7,900.7L770.4,882c1.6-1.1,3.2-2.3,4.7-3.4
		l13.6,18.6C787,898.4,785.4,899.5,783.7,900.7z M203.4,896.9c-1.7-1.2-3.3-2.4-4.9-3.7l13.8-18.4c1.6,1.2,3.1,2.3,4.7,3.5
		L203.4,896.9z M793.6,893.5l-13.8-18.4c1.6-1.2,3.1-2.3,4.7-3.5l14,18.2C796.9,891,795.2,892.3,793.6,893.5z M193.6,889.5
		c-1.6-1.2-3.2-2.5-4.8-3.8l14.3-18c1.5,1.2,3.1,2.4,4.6,3.6L193.6,889.5z M803.3,886l-14.2-18c1.5-1.2,3.1-2.4,4.6-3.7l14.5,17.9
		C806.5,883.5,804.9,884.8,803.3,886z M183.9,881.8c-1.6-1.3-3.2-2.6-4.7-3.9l14.7-17.7c1.5,1.3,3,2.5,4.5,3.7L183.9,881.8z
		 M812.9,878.3l-14.7-17.7c1.5-1.2,3-2.5,4.5-3.8l14.9,17.5C816,875.7,814.4,877,812.9,878.3L812.9,878.3z M174.5,874
		c-1.6-1.3-3.1-2.7-4.6-4l15.2-17.3c1.5,1.3,2.9,2.6,4.4,3.8L174.5,874z M822.2,870.4L807.1,853c1.5-1.3,2.9-2.6,4.4-3.9l15.3,17.1
		C825.3,867.7,823.7,869,822.2,870.4L822.2,870.4z M165.2,865.9c-1.5-1.4-3-2.7-4.5-4.1l15.6-16.9c1.4,1.3,2.9,2.6,4.3,3.9
		L165.2,865.9z M831.3,862.2l-15.5-17c1.4-1.3,2.9-2.6,4.3-4l15.8,16.8C834.3,859.4,832.8,860.8,831.3,862.2L831.3,862.2z
		 M156.1,857.6c-1.5-1.4-3-2.8-4.4-4.2l16-16.5c1.4,1.3,2.8,2.7,4.2,4L156.1,857.6z M840.2,853.8l-15.9-16.6
		c1.4-1.4,2.8-2.7,4.2-4.1l16.2,16.4C843.2,851,841.8,852.4,840.2,853.8L840.2,853.8z M147.3,849.1c-1.5-1.4-2.9-2.9-4.3-4.3
		l16.4-16.2c1.4,1.4,2.7,2.8,4.1,4.1L147.3,849.1z M849,845.2L832.7,829c1.4-1.4,2.7-2.8,4.1-4.2l16.5,16
		C851.9,842.3,850.4,843.7,849,845.2z M138.7,840.4c-1.4-1.5-2.8-3-4.2-4.4l16.8-15.8c1.3,1.4,2.7,2.8,4,4.2L138.7,840.4z
		 M857.5,836.4l-16.7-15.8c1.3-1.4,2.7-2.8,4-4.3l16.9,15.6C860.3,833.4,858.9,834.9,857.5,836.4L857.5,836.4z M130.3,831.5
		c-1.4-1.5-2.8-3-4.1-4.5l17.2-15.3c1.3,1.4,2.6,2.9,3.9,4.3L130.3,831.5z M865.8,827.3L848.7,812c1.3-1.5,2.6-2.9,3.9-4.4
		l17.3,15.1C868.6,824.2,867.2,825.8,865.8,827.3L865.8,827.3z M122.1,822.3c-1.3-1.5-2.7-3.1-4-4.6l17.5-14.9
		c1.3,1.5,2.5,3,3.8,4.4L122.1,822.3z M873.9,818.1l-17.5-14.9c1.3-1.5,2.5-3,3.8-4.5l17.7,14.7C876.6,815,875.2,816.5,873.9,818.1
		L873.9,818.1z M114.2,813c-1.3-1.6-2.6-3.2-3.9-4.7l17.9-14.5c1.2,1.5,2.5,3,3.7,4.5L114.2,813z M881.8,808.7l-17.9-14.5
		c1.2-1.5,2.5-3,3.7-4.6l18,14.3C884.3,805.5,883.1,807.1,881.8,808.7L881.8,808.7z M106.5,803.4c-1.3-1.6-2.5-3.2-3.8-4.8l18.2-14
		c1.2,1.5,2.4,3.1,3.6,4.6L106.5,803.4z M889.4,799l-18.2-14c1.2-1.5,2.4-3.1,3.6-4.7l18.4,13.8C891.9,795.8,890.6,797.4,889.4,799z
		 M99,793.7c-1.2-1.6-2.4-3.3-3.7-4.9l18.7-13.6c1.2,1.6,2.3,3.1,3.5,4.7L99,793.7z M896.7,789.2l-18.5-13.6
		c1.2-1.6,2.3-3.2,3.4-4.7l18.7,13.4C899.2,785.9,898,787.5,896.7,789.2L896.7,789.2z M91.7,783.8c-1.2-1.7-2.4-3.3-3.5-5l18.9-13.1
		c1.1,1.6,2.2,3.2,3.4,4.8L91.7,783.8z M903.8,779.2L885,766.1c1.1-1.6,2.2-3.2,3.3-4.8l19,12.9
		C906.2,775.8,905.1,777.5,903.8,779.2L903.8,779.2z M84.8,773.8c-1.1-1.7-2.3-3.4-3.4-5.1l19.3-12.7c1.1,1.6,2.2,3.2,3.2,4.9
		L84.8,773.8z M910.8,769l-19.2-12.7c1.1-1.6,2.1-3.3,3.2-4.9l19.4,12.4C913,765.6,911.9,767.3,910.8,769L910.8,769z M78,763.5
		c-1.1-1.7-2.2-3.4-3.3-5.2l19.5-12.2c1,1.6,2.1,3.3,3.1,4.9L78,763.5z M917.4,758.7l-19.5-12.2c1-1.7,2.1-3.3,3.1-5l19.7,11.9
		C919.6,755.2,918.5,756.9,917.4,758.7L917.4,758.7z M71.6,753.1c-1.1-1.8-2.1-3.5-3.1-5.3l19.8-11.7c1,1.7,2,3.3,3,5L71.6,753.1z
		 M923.8,748.1L904,736.5c1-1.7,2-3.4,3-5.1l20,11.5C925.9,744.6,924.9,746.4,923.8,748.1L923.8,748.1z M65.4,742.6
		c-1-1.8-2-3.5-3-5.3l20.1-11.2c1,1.7,1.9,3.4,2.9,5.1L65.4,742.6z M929.9,737.5l-20.1-11.2c0.9-1.7,1.9-3.4,2.8-5.1l20.2,10.9
		C931.9,733.9,930.9,735.7,929.9,737.5z M59.4,731.9c-1-1.8-1.9-3.6-2.9-5.4l20.4-10.7c0.9,1.7,1.8,3.4,2.7,5.2L59.4,731.9z
		 M935.8,726.7L915.4,716c0.9-1.7,1.8-3.5,2.7-5.2l20.5,10.5C937.7,723.1,936.8,724.9,935.8,726.7z M53.7,721.1
		c-0.9-1.8-1.8-3.6-2.7-5.5l20.6-10.2c0.9,1.8,1.7,3.5,2.6,5.2L53.7,721.1z M941.4,715.7l-20.6-10.2c0.9-1.8,1.7-3.5,2.6-5.3
		l20.7,9.9C943.2,712.1,942.3,713.9,941.4,715.7z M48.4,710.1c-0.9-1.8-1.8-3.7-2.6-5.5l20.9-9.7c0.8,1.8,1.7,3.5,2.5,5.3
		L48.4,710.1z M946.7,704.6l-20.9-9.6c0.8-1.8,1.6-3.6,2.4-5.3l21,9.4C948.4,700.9,947.6,702.8,946.7,704.6L946.7,704.6z M43.2,699
		c-0.8-1.8-1.7-3.7-2.5-5.6l21.1-9.2c0.8,1.8,1.6,3.6,2.3,5.3L43.2,699z M951.7,693.4l-21.1-9.1c0.8-1.8,1.5-3.6,2.3-5.4l21.2,8.9
		C953.3,689.6,952.5,691.5,951.7,693.4L951.7,693.4z M38.3,687.8c-0.8-1.9-1.6-3.8-2.3-5.7l21.3-8.6c0.7,1.8,1.5,3.6,2.2,5.4
		L38.3,687.8z M956.5,682l-21.3-8.6c0.7-1.8,1.5-3.6,2.2-5.5l21.4,8.4C958,678.2,957.3,680.1,956.5,682z M33.7,676.4
		c-0.7-1.9-1.5-3.8-2.2-5.7l21.5-8.1c0.7,1.8,1.4,3.7,2.1,5.5L33.7,676.4z M961,670.5l-21.5-8.1c0.7-1.8,1.3-3.7,2-5.5l21.6,7.8
		C962.4,666.7,961.7,668.6,961,670.5z M29.4,664.9c-0.7-1.9-1.4-3.8-2-5.8l21.7-7.5c0.7,1.8,1.3,3.7,2,5.5L29.4,664.9z M965.1,658.9
		l-21.7-7.5c0.7-1.8,1.3-3.7,1.9-5.6l21.8,7.3C966.5,655.1,965.8,657,965.1,658.9L965.1,658.9z M25.4,653.3
		c-0.7-1.9-1.3-3.9-1.9-5.8l21.9-7c0.6,1.9,1.2,3.7,1.8,5.6L25.4,653.3z M969,647.3l-21.9-7c0.6-1.9,1.2-3.7,1.8-5.6l22,6.7
		C970.3,643.3,969.7,645.3,969,647.3z M21.6,641.6c-0.6-2-1.2-3.9-1.8-5.9l22.1-6.5c0.5,1.9,1.1,3.7,1.7,5.6L21.6,641.6z
		 M972.7,635.5l-22.1-6.5c0.5-1.9,1.1-3.7,1.6-5.6l22.2,6.2C973.8,631.6,973.2,633.5,972.7,635.5L972.7,635.5z M18.2,629.8
		c-0.5-2-1.1-3.9-1.6-5.9l22.2-5.9c0.5,1.9,1,3.8,1.5,5.6L18.2,629.8z M975.9,623.7l-22.2-5.9c0.5-1.9,1-3.8,1.5-5.7l22.3,5.6
		C977,619.7,976.5,621.7,975.9,623.7z M15.1,618c-0.5-2-1-4-1.5-6l22.4-5.3c0.5,1.9,0.9,3.8,1.4,5.7L15.1,618z M978.9,611.8
		l-22.4-5.3c0.5-1.9,0.9-3.8,1.3-5.7l22.4,5C979.9,607.8,979.4,609.8,978.9,611.8L978.9,611.8z M12.2,606c-0.4-2-0.9-4-1.3-6
		l22.5-4.8c0.4,1.9,0.8,3.8,1.2,5.7L12.2,606z M981.6,599.8l-22.5-4.8c0.4-1.9,0.8-3.8,1.2-5.7l22.6,4.5
		C982.5,595.8,982,597.8,981.6,599.8z M9.6,594c-0.4-2-0.8-4-1.2-6l22.6-4.2c0.4,1.9,0.7,3.8,1.1,5.7L9.6,594z M984,587.8l-22.6-4.2
		c0.4-1.9,0.7-3.8,1-5.8l22.7,3.9C984.7,583.7,984.4,585.7,984,587.8z M7.4,582c-0.3-2-0.7-4-1-6.1l22.7-3.7c0.3,1.9,0.6,3.9,1,5.8
		L7.4,582z M986.1,575.7l-22.7-3.7c0.3-1.9,0.6-3.8,0.9-5.8l22.8,3.4C986.8,571.6,986.4,573.6,986.1,575.7L986.1,575.7z M5.4,569.9
		c-0.3-2-0.6-4-0.9-6.1l22.8-3.1c0.3,1.9,0.5,3.9,0.8,5.8L5.4,569.9z M987.9,563.5l-22.8-3.1c0.3-1.9,0.5-3.9,0.8-5.8l22.8,2.8
		C988.5,559.5,988.2,561.5,987.9,563.5L987.9,563.5z M3.8,557.7c-0.2-2-0.5-4-0.7-6.1l22.9-2.5c0.2,1.9,0.4,3.9,0.7,5.8L3.8,557.7z
		 M989.4,551.3l-22.9-2.5c0.2-1.9,0.4-3.9,0.6-5.8l22.9,2.2C989.9,547.3,989.6,549.3,989.4,551.3L989.4,551.3z M2.4,545.5
		c-0.2-2-0.4-4-0.6-6.1l22.9-2c0.2,2,0.3,3.9,0.5,5.8L2.4,545.5z M990.6,539.1l-22.9-2c0.2-1.9,0.3-3.9,0.5-5.8l22.9,1.7
		C991,535,990.8,537.1,990.6,539.1L990.6,539.1z M1.4,533.3c-0.2-2-0.3-4.1-0.4-6.1l23-1.4c0.1,2,0.3,3.9,0.4,5.8L1.4,533.3z
		 M991.5,526.9l-23-1.4c0.1-1.9,0.2-3.9,0.3-5.8l23,1.1C991.7,522.8,991.6,524.8,991.5,526.9L991.5,526.9z M0.6,521
		c-0.1-2-0.2-4-0.3-6.1l23-0.8c0.1,2,0.2,3.9,0.2,5.8L0.6,521z M992.1,514.6l-23-0.8c0.1-1.9,0.1-3.9,0.2-5.9l23,0.6
		C992.2,510.5,992.2,512.6,992.1,514.6L992.1,514.6z M0.2,508.8c-0.1-2-0.1-4.1-0.1-6.1l23-0.3c0,2,0.1,3.9,0.1,5.9L0.2,508.8z
		 M992.4,502.4l-23-0.3c0-2,0-3.9,0-5.9v-0.6h23v0.5C992.5,498.3,992.4,500.3,992.4,502.4z M23,496.5H0v-0.3c0-2,0-3.9,0-5.9l23,0.3
		c0,1.9,0,3.7,0,5.6V496.5z M969.4,489.8c0-2-0.1-3.9-0.1-5.8l23-0.6c0.1,2,0.1,4.1,0.1,6.1L969.4,489.8z M23.1,484.8l-23-0.5
		c0-2.1,0.1-4.1,0.2-6.1l23,0.8C23.2,480.9,23.2,482.8,23.1,484.8L23.1,484.8z M969.1,478.1c-0.1-1.9-0.2-3.9-0.3-5.9l23-1.1
		c0.1,2,0.2,4.1,0.3,6.1L969.1,478.1z M23.6,473.1l-23-1.1c0.1-2,0.2-4.1,0.3-6.1l23,1.4C23.8,469.2,23.6,471.1,23.6,473.1
		L23.6,473.1z M968.6,466.5c-0.1-2-0.3-3.9-0.4-5.8l22.9-1.7c0.2,2,0.3,4.1,0.4,6.1L968.6,466.5z M24.3,461.5l-23-1.8
		c0.1-2,0.3-4.1,0.5-6.1l22.9,2C24.6,457.5,24.4,459.5,24.3,461.5L24.3,461.5z M967.7,454.8c-0.2-1.9-0.3-3.9-0.5-5.8l22.8-2.4
		c0.2,2,0.4,4.1,0.6,6.1L967.7,454.8z M25.3,449.8l-22.9-2.3c0.2-2,0.4-4.1,0.6-6.1l22.9,2.5c-0.2,1.9-0.4,3.9-0.6,5.8V449.8z
		 M966.5,443.2c-0.2-1.9-0.4-3.9-0.7-5.8l22.8-2.8c0.3,2,0.5,4,0.7,6.1L966.5,443.2z M26.5,438.2l-22.8-2.9c0.3-2,0.5-4,0.8-6.1
		l22.8,3.1c-0.3,1.9-0.5,3.9-0.8,5.8V438.2z M965.1,431.6c-0.3-1.9-0.5-3.9-0.8-5.8l22.8-3.5c0.3,2,0.6,4,0.9,6.1L965.1,431.6z
		 M28.1,426.6l-22.7-3.4c0.3-2,0.6-4,0.9-6.1l22.7,3.6C28.7,422.6,28.4,424.6,28.1,426.6L28.1,426.6z M963.3,420
		c-0.3-1.9-0.6-3.9-1-5.8l22.7-4c0.4,2,0.7,4,1,6L963.3,420z M30,415l-22.7-4c0.3-2,0.7-4,1.1-6l22.6,4.2
		C30.6,411.1,30.3,413,30,415z M961.4,408.4c-0.4-1.9-0.7-3.8-1.1-5.7l22.5-4.5c0.4,2,0.8,4,1.2,6L961.4,408.4z M32.1,403.4L9.5,399
		c0.4-2,0.8-4,1.2-6l22.5,4.8C32.9,399.6,32.5,401.5,32.1,403.4z M959,396.9c-0.4-1.9-0.8-3.8-1.3-5.7l22.4-5.1c0.4,2,0.9,4,1.3,6
		L959,396.9z M34.5,392l-22.4-5c0.4-2,0.9-4,1.4-6l22.4,5.3C35.4,388.2,34.9,390.1,34.5,392z M956.4,385.5c-0.5-1.9-0.9-3.8-1.4-5.7
		l22.3-5.6c0.5,2,1,4,1.5,6L956.4,385.5z M37.2,380.6L14.9,375c0.5-2,1-4,1.5-5.9l22.2,5.9C38.2,376.8,37.7,378.7,37.2,380.6
		L37.2,380.6z M953.6,374.2c-0.5-1.9-1-3.8-1.5-5.6l22.2-6.2c0.5,2,1.1,4,1.6,5.9L953.6,374.2z M40.2,369.3L18,363.1
		c0.5-2,1.1-4,1.7-5.9l22.1,6.4C41.3,365.5,40.7,367.4,40.2,369.3z M950.4,362.9c-0.5-1.9-1.1-3.7-1.7-5.6l22-6.7
		c0.6,2,1.2,3.9,1.8,5.9L950.4,362.9z M43.5,358.1l-22-6.7c0.6-2,1.2-4,1.8-5.9l21.9,7C44.6,354.3,44.1,356.2,43.5,358.1z
		 M947,351.7c-0.6-1.9-1.2-3.7-1.8-5.6l21.8-7.3c0.7,1.9,1.3,3.9,1.9,5.8L947,351.7z M47,346.9l-21.8-7.2c0.6-2,1.3-3.9,2-5.8
		l21.7,7.5C48.3,343.1,47.7,345,47,346.9z M943.3,340.6c-0.7-1.9-1.3-3.7-2-5.5l21.6-7.8c0.7,1.9,1.4,3.9,2.1,5.8L943.3,340.6z
		 M50.9,335.8L29.3,328c0.7-1.9,1.4-3.9,2.1-5.8l21.5,8.1C52.2,332.1,51.6,333.9,50.9,335.8z M939.3,329.6c-0.7-1.8-1.4-3.6-2.1-5.5
		l21.4-8.4c0.7,1.9,1.5,3.8,2.2,5.7L939.3,329.6z M55,324.8l-21.4-8.3c0.8-1.9,1.5-3.8,2.3-5.7l21.3,8.6
		C56.4,321.1,55.7,322.9,55,324.8z M935,318.7c-0.7-1.8-1.5-3.6-2.2-5.4l21.2-8.9c0.8,1.9,1.6,3.8,2.3,5.7L935,318.7z M59.4,313.9
		L38.2,305c0.8-1.9,1.6-3.8,2.4-5.7l21.1,9.1C60.9,310.3,60.2,312.1,59.4,313.9z M930.5,308c-0.8-1.8-1.6-3.6-2.4-5.3l21-9.4
		c0.8,1.9,1.7,3.7,2.5,5.6L930.5,308z M64.1,303.1l-21-9.4c0.8-1.9,1.7-3.7,2.5-5.6l20.9,9.6C65.7,299.5,64.9,301.3,64.1,303.1z
		 M925.7,297.3c-0.8-1.8-1.6-3.5-2.5-5.3l20.8-9.9c0.9,1.8,1.7,3.7,2.6,5.5L925.7,297.3z M69,292.4l-20.8-9.9
		c0.9-1.8,1.8-3.7,2.7-5.5l20.6,10.2C70.7,288.9,69.8,290.7,69,292.4z M920.7,286.8c-0.9-1.7-1.7-3.5-2.6-5.2l20.5-10.5
		c0.9,1.8,1.8,3.6,2.8,5.5L920.7,286.8z M74.2,281.9l-20.5-10.4c0.9-1.8,1.9-3.7,2.8-5.5l20.4,10.7C76,278.4,75.1,280.2,74.2,281.9z
		 M915.4,276.4c-0.9-1.7-1.8-3.4-2.7-5.1l20.2-11c1,1.8,1.9,3.6,2.9,5.4L915.4,276.4z M79.6,271.5l-20.2-10.9c1-1.8,2-3.6,3-5.4
		l20.1,11.2C81.5,268.1,80.5,269.8,79.6,271.5z M909.8,266.1c-0.9-1.7-1.9-3.4-2.9-5.1l20-11.4c1,1.8,2,3.5,3,5.3L909.8,266.1z
		 M85.3,261.3l-20-11.4c1-1.8,2-3.5,3.1-5.3l19.8,11.7C87.3,257.9,86.3,259.6,85.3,261.3L85.3,261.3z M904,256c-1-1.7-2-3.4-3-5
		l19.7-11.9c1,1.8,2.1,3.5,3.1,5.3L904,256z M91.3,251.2l-19.7-11.9c1.1-1.7,2.1-3.5,3.2-5.2l19.5,12.2
		C93.3,247.9,92.3,249.5,91.3,251.2z M898,246c-1-1.6-2.1-3.3-3.1-4.9l19.4-12.4c1.1,1.7,2.2,3.5,3.3,5.2L898,246z M97.5,241.2
		l-19.4-12.4c1.1-1.7,2.2-3.4,3.3-5.2l19.2,12.6C99.6,238,98.6,239.6,97.5,241.2z M891.7,236.2c-1.1-1.6-2.1-3.2-3.2-4.9l19-12.9
		c1.2,1.7,2.3,3.4,3.4,5.1L891.7,236.2z M104,231.4l-19-12.9c1.1-1.7,2.3-3.4,3.5-5.1l18.9,13.1C106.2,228.2,105.1,229.8,104,231.4z
		 M885.2,226.5c-1.1-1.6-2.2-3.2-3.4-4.8l18.7-13.4c1.2,1.7,2.4,3.3,3.5,5L885.2,226.5z M110.7,221.8l-18.8-13.4
		c1.2-1.7,2.4-3.3,3.6-5l18.6,13.6C112.9,218.6,111.8,220.2,110.7,221.8L110.7,221.8z M878.3,217c-1.2-1.6-2.3-3.1-3.5-4.7
		l18.4-13.8c1.2,1.6,2.4,3.3,3.7,4.9L878.3,217z M117.6,212.4l-18.4-13.8c1.2-1.6,2.5-3.3,3.7-4.9l18.2,14
		C119.9,209.2,118.7,210.8,117.6,212.4z M871.3,207.7c-1.2-1.6-2.4-3.1-3.6-4.6l18-14.3c1.3,1.6,2.5,3.2,3.8,4.8L871.3,207.7z
		 M124.7,203.1l-18-14.3c1.3-1.6,2.6-3.2,3.8-4.8l17.9,14.5C127.1,200,125.9,201.6,124.7,203.1L124.7,203.1z M864.1,198.5
		c-1.2-1.5-2.5-3-3.7-4.5l17.7-14.7c1.3,1.6,2.6,3.1,3.9,4.7L864.1,198.5z M132.1,194l-17.7-14.7c1.3-1.6,2.6-3.1,4-4.7l17.5,14.9
		C134.6,191,133.3,192.5,132.1,194L132.1,194z M856.6,189.5c-1.3-1.5-2.5-3-3.8-4.4l17.3-15.1c1.3,1.5,2.7,3.1,4,4.6L856.6,189.5z
		 M139.7,185.1L122.4,170c1.3-1.5,2.7-3.1,4.1-4.6l17.1,15.3C142.2,182.1,141,183.6,139.7,185.1L139.7,185.1z M848.9,180.7
		c-1.3-1.5-2.6-2.9-3.9-4.3l17-15.6c1.4,1.5,2.8,3,4.1,4.6L848.9,180.7z M147.5,176.3l-16.9-15.6c1.4-1.5,2.8-3,4.2-4.5l16.8,15.8
		C150.1,173.5,148.8,174.9,147.5,176.3L147.5,176.3z M841,172.1c-1.3-1.4-2.7-2.8-4-4.2l16.5-16c1.4,1.5,2.8,2.9,4.2,4.4L841,172.1z
		 M155.5,167.8l-16.6-16c1.4-1.5,2.8-2.9,4.3-4.4l16.4,16.2C158.2,165,156.9,166.4,155.5,167.8L155.5,167.8z M832.9,163.6
		c-1.4-1.4-2.8-2.8-4.1-4.1l16.2-16.4c1.5,1.4,2.9,2.9,4.3,4.3L832.9,163.6z M163.8,159.5l-16.2-16.4c1.5-1.4,2.9-2.9,4.4-4.3
		l16,16.6C166.5,156.8,165.1,158.1,163.8,159.5L163.8,159.5z M824.6,155.4c-1.4-1.4-2.8-2.7-4.2-4l15.8-16.8c1.5,1.4,3,2.8,4.4,4.2
		L824.6,155.4z M172.2,151.4l-15.8-16.8c1.5-1.4,3-2.8,4.5-4.2l15.6,16.9C175,148.7,173.6,150,172.2,151.4L172.2,151.4z M816,147.4
		c-1.4-1.3-2.9-2.6-4.3-3.9l15.3-17.2c1.5,1.4,3,2.7,4.5,4.1L816,147.4z M180.8,143.5l-15.3-17.1c1.5-1.3,3-2.7,4.6-4.1l15.1,17.3
		C183.7,140.9,182.2,142.2,180.8,143.5L180.8,143.5z M807.3,139.6c-1.5-1.3-3-2.6-4.4-3.8l14.9-17.5c1.6,1.3,3.1,2.7,4.7,4
		L807.3,139.6z M189.6,135.8l-14.9-17.5c1.6-1.3,3.1-2.6,4.7-4l14.7,17.7C192.6,133.3,191.1,134.5,189.6,135.8L189.6,135.8z
		 M798.4,132c-1.5-1.2-3-2.5-4.5-3.7l14.5-17.9c1.6,1.3,3.2,2.6,4.7,3.9L798.4,132z M198.6,128.3l-14.5-17.9
		c1.6-1.3,3.2-2.6,4.8-3.8l14.3,18C201.6,125.8,200.1,127.1,198.6,128.3L198.6,128.3z M789.2,124.6c-1.5-1.2-3.1-2.4-4.6-3.6
		l14-18.2c1.6,1.2,3.2,2.5,4.8,3.8L789.2,124.6z M207.8,121.1l-14-18.2c1.6-1.2,3.2-2.5,4.9-3.7l13.8,18.4
		C210.9,118.7,209.3,119.9,207.8,121.1L207.8,121.1z M780,117.5c-1.6-1.2-3.1-2.3-4.7-3.5l13.6-18.6c1.7,1.2,3.3,2.4,4.9,3.7
		L780,117.5z M217.1,114l-13.6-18.5c1.6-1.2,3.3-2.4,5-3.6l13.4,18.7C220.3,111.7,218.7,112.9,217.1,114z M770.5,110.5
		c-1.6-1.1-3.2-2.2-4.8-3.4l13.1-18.9c1.7,1.2,3.3,2.3,5,3.5L770.5,110.5z M226.6,107.2l-13.1-18.9c1.7-1.2,3.4-2.3,5.1-3.5
		l12.9,19.1C229.8,105,228.2,106.1,226.6,107.2L226.6,107.2z M760.9,103.8c-1.6-1.1-3.2-2.2-4.9-3.2l12.7-19.2
		c1.7,1.1,3.4,2.3,5.1,3.4L760.9,103.8z M236.3,100.7l-12.6-19.2l5.1-3.3l12.4,19.4C239.6,98.6,237.9,99.6,236.3,100.7z M751.1,97.4
		c-1.6-1.1-3.3-2.1-5-3.1l12.2-19.5c1.7,1.1,3.5,2.2,5.2,3.3L751.1,97.4z M246.1,94.4L234,74.9c1.7-1.1,3.5-2.1,5.2-3.2l11.9,19.7
		C249.5,92.3,247.8,93.4,246.1,94.4L246.1,94.4z M741.1,91.3c-1.7-1-3.3-2-5-3l11.7-19.8c1.8,1,3.5,2.1,5.3,3.2L741.1,91.3z
		 M256.1,88.4l-11.7-19.8c1.8-1,3.5-2.1,5.3-3.1l11.4,20C259.5,86.4,257.8,87.4,256.1,88.4L256.1,88.4z M731.1,85.3l-5.1-2.9
		l11.2-20.1c1.8,1,3.6,2,5.3,3L731.1,85.3z M266.3,82.6l-11.2-20.1c1.8-1,3.6-2,5.4-3l11,20.2C269.7,80.6,268,81.6,266.3,82.6
		L266.3,82.6z M720.8,79.6c-1.7-0.9-3.4-1.8-5.2-2.8l10.7-20.4c1.8,1,3.6,1.9,5.4,2.9L720.8,79.6z M276.5,77l-10.7-20.4
		c1.8-1,3.6-1.9,5.4-2.8l10.4,20.5C280,75.2,278.2,76.1,276.5,77z M710.4,74.2c-1.8-0.9-3.5-1.8-5.2-2.6L715.4,51
		c1.8,0.9,3.7,1.8,5.5,2.8L710.4,74.2z M286.9,71.7l-10.2-20.6c1.8-0.9,3.7-1.8,5.5-2.7l9.9,20.8C290.4,70,288.7,70.8,286.9,71.7
		L286.9,71.7z M699.9,69c-1.8-0.8-3.5-1.7-5.3-2.5l9.7-20.9c1.9,0.9,3.7,1.7,5.6,2.6L699.9,69z M297.4,66.7l-9.7-20.9
		c1.9-0.9,3.7-1.7,5.6-2.5l9.4,21C301,65,299.2,65.8,297.4,66.7z M689.2,64c-1.8-0.8-3.6-1.6-5.4-2.4l9.1-21.1
		c1.9,0.8,3.8,1.6,5.6,2.5L689.2,64z M308.1,61.9L299,40.8c1.9-0.8,3.7-1.6,5.6-2.4l8.9,21.2C311.6,60.3,309.9,61.1,308.1,61.9z
		 M678.5,59.4c-1.8-0.8-3.6-1.5-5.4-2.2l8.6-21.3c1.9,0.8,3.8,1.5,5.7,2.3L678.5,59.4z M318.8,57.4L310.2,36
		c1.9-0.8,3.8-1.5,5.7-2.3l8.4,21.4C322.4,55.9,320.6,56.6,318.8,57.4L318.8,57.4z M667.6,55c-1.8-0.7-3.6-1.4-5.5-2.1l8.1-21.5
		l5.8,2.2L667.6,55z M329.7,53.1l-8.1-21.5c1.9-0.7,3.8-1.4,5.8-2.1l7.8,21.6C333.4,51.8,331.5,52.4,329.7,53.1z M656.6,50.8
		c-1.8-0.7-3.7-1.3-5.5-2l7.5-21.7c2,0.7,3.9,1.4,5.8,2L656.6,50.8z M340.7,49.1l-7.6-21.7c1.9-0.7,3.9-1.3,5.8-2l7.3,21.8
		C344.4,47.9,342.6,48.5,340.7,49.1z M645.5,47c-1.9-0.6-3.7-1.2-5.6-1.8l7-21.9c2,0.6,3.9,1.3,5.9,1.9L645.5,47z M351.8,45.4
		l-7-21.9c1.9-0.6,3.9-1.2,5.9-1.8l6.7,22C355.5,44.2,353.7,44.8,351.8,45.4z M634.3,43.4c-1.9-0.6-3.7-1.1-5.6-1.7l6.4-22.1
		c2,0.6,3.9,1.2,5.9,1.8L634.3,43.4z M363,42l-6.5-22.1c2-0.6,3.9-1.1,5.9-1.7l6.2,22.2C366.8,40.9,364.9,41.5,363,42z M623,40.2
		c-1.9-0.5-3.8-1-5.7-1.5l5.9-22.2c2,0.5,4,1.1,5.9,1.6L623,40.2z M374.3,38.9l-5.9-22.2c2-0.5,4-1,5.9-1.5l5.7,22.3
		C378.1,37.9,376.2,38.4,374.3,38.9z M611.7,37.2c-1.9-0.5-3.8-0.9-5.7-1.4l5.3-22.4c2,0.5,4,1,6,1.5L611.7,37.2z M385.6,36
		l-5.4-22.4c2-0.5,4-0.9,6-1.4l5.1,22.4C389.4,35.1,387.5,35.5,385.6,36z M600.3,34.5c-1.9-0.4-3.8-0.9-5.7-1.2l4.8-22.5
		c2,0.4,4,0.9,6,1.3L600.3,34.5z M397,33.4l-4.8-22.5c2-0.4,4-0.8,6-1.2l4.5,22.6C400.9,32.6,399,33,397,33.4z M588.9,32.1l-5.8-1.1
		l4.2-22.6c2,0.4,4,0.8,6,1.1L588.9,32.1z M408.5,31.1l-4.2-22.6c2-0.4,4-0.7,6-1.1l4,22.7C412.4,30.4,410.4,30.8,408.5,31.1
		L408.5,31.1z M577.4,29.9c-1.9-0.3-3.8-0.7-5.8-1l3.6-22.7c2,0.3,4,0.7,6.1,1L577.4,29.9z M420,29.1l-3.7-22.7c2-0.3,4-0.6,6.1-0.9
		l3.4,22.8L420,29.1z M565.8,28.1c-1.9-0.3-3.8-0.6-5.8-0.8l3.1-22.8c2,0.3,4,0.6,6.1,0.8L565.8,28.1z M431.6,27.4l-3.1-22.8
		c2-0.3,4.1-0.5,6.1-0.8l2.8,22.8C435.5,26.9,433.6,27.1,431.6,27.4L431.6,27.4z M554.2,26.5c-1.9-0.2-3.9-0.5-5.8-0.7L550.9,3
		c2,0.2,4,0.5,6.1,0.7L554.2,26.5z M443.2,26l-2.5-22.9c2-0.2,4.1-0.4,6.1-0.6l2.3,22.9C447.1,25.5,445.2,25.7,443.2,26L443.2,26z
		 M542.5,25.3c-1.9-0.2-3.9-0.4-5.8-0.5l1.9-22.9c2,0.2,4.1,0.4,6.1,0.6L542.5,25.3z M454.9,24.8l-2-22.9c2-0.2,4-0.3,6.1-0.5
		l1.7,22.9C458.8,24.5,456.8,24.6,454.9,24.8L454.9,24.8z M530.9,24.3c-1.9-0.1-3.9-0.3-5.8-0.4l1.4-23c2,0.1,4.1,0.3,6.1,0.4
		L530.9,24.3z M466.5,23.9L465.2,1c2-0.1,4.1-0.2,6.1-0.3l1.1,23C470.5,23.7,468.5,23.8,466.5,23.9L466.5,23.9z M519.2,23.6
		c-1.9-0.1-3.9-0.2-5.8-0.2l0.8-23c2,0.1,4.1,0.2,6.1,0.3L519.2,23.6z M478.2,23.4l-0.9-23c2-0.1,4.1-0.1,6.1-0.2l0.6,23
		C482.2,23.2,480.2,23.3,478.2,23.4L478.2,23.4z M507.5,23.1c-1.9,0-3.9-0.1-5.9-0.1l0.3-23c2,0,4.1,0.1,6.1,0.1L507.5,23.1z
		 M490,23l-0.3-23c2,0,4.1,0,6.1,0v23C493.9,23,491.9,23,490,23z"/>
</g>
<path class="st1" d="M209.3,575.4c-4.2-3.3-9.6-5-16-5h-23.6c-7.5,0-7.5-3.2-7.5-4.7v-13.1c0-1.5,0-4.7,7.5-4.7h45.6v-15.6h-45.6
	c-6.4,0-11.8,1.7-16,5c-4.8,3.6-7.6,9.4-7.4,15.4v13.1c0,6.5,2.5,11.6,7.3,15.3c4.2,3.3,9.6,5,16,5h23.6c7.5,0,7.5,3.2,7.5,4.7v15.7
	c0,1.5,0,4.7-7.5,4.7h-45.4v15.6h45.5c6.4,0,11.8-1.7,16-5c4.8-3.6,7.6-9.3,7.4-15.3v-15.7C216.6,584.3,214.1,579.1,209.3,575.4z"/>
<rect x="242.3" y="576.7" class="st1" width="30.1" height="15.7"/>
<path class="st1" d="M344,532.3h-48.5v94.4H344c6.2,0.1,12.1-2.3,16.5-6.6c4.5-4.3,6.9-10.2,6.8-16.3v-9c0.1-5.6-1.9-11-5.7-15.2
	c3.8-4.1,5.9-9.6,5.7-15.2v-9.1c0.1-6.2-2.4-12.1-6.9-16.3C356.1,534.6,350.2,532.2,344,532.3z M344,611.1h-32.8v-23.7H344
	c2,0,3.9,0.7,5.3,2.1c1.4,1.3,2.2,3.2,2.2,5.2v9c0,2-0.7,3.9-2.2,5.2C347.9,610.4,346,611.1,344,611.1z M351.5,564.4
	c0.1,2-0.7,3.9-2.2,5.2c-1.4,1.4-3.3,2.2-5.3,2.1h-32.8v-23.9H344c2,0,3.9,0.7,5.3,2.2c1.4,1.4,2.2,3.3,2.2,5.2V564.4z"/>
<path class="st1" d="M427.1,556.4h-15.3c-6.2-0.2-12.2,2.2-16.7,6.5s-6.9,10.3-6.8,16.5V603c-0.2,6.2,2.3,12.2,6.8,16.5
	s10.5,6.6,16.7,6.5h15.4c6.2,0.2,12.2-2.2,16.7-6.5s6.9-10.3,6.8-16.5v-23.7c0.2-6.2-2.3-12.2-6.8-16.5
	C439.3,558.6,433.3,556.2,427.1,556.4z M411.7,572h15.4c2,0,4,0.7,5.5,2.2c1.5,1.3,2.3,3.2,2.2,5.2V603c0,2-0.8,3.9-2.2,5.2
	c-1.5,1.4-3.4,2.2-5.5,2.2h-15.4c-2,0-4-0.7-5.4-2.1c-1.4-1.3-2.2-3.2-2.2-5.2v-23.7c0-2,0.7-3.9,2.2-5.2
	C407.7,572.7,409.7,571.9,411.7,572z"/>
<path class="st1" d="M510.4,556.4H495c-6.2-0.2-12.2,2.2-16.7,6.5s-6.9,10.3-6.8,16.5V603c-0.2,6.2,2.3,12.2,6.8,16.5
	s10.5,6.6,16.7,6.5h15.3c6.2,0.1,12.2-2.2,16.7-6.5s7-10.2,6.8-16.4v-23.7c0.2-6.2-2.3-12.2-6.8-16.5S516.6,556.2,510.4,556.4z
	 M494.9,572h15.4c2,0,4,0.7,5.5,2.2c1.5,1.3,2.3,3.2,2.2,5.2V603c0,2-0.8,3.9-2.2,5.2c-1.5,1.4-3.4,2.2-5.5,2.2h-15.4
	c-2,0-3.9-0.7-5.4-2.1c-1.4-1.3-2.2-3.2-2.2-5.2v-23.7c0-2,0.7-3.9,2.2-5.2C491,572.7,492.9,571.9,494.9,572z"/>
<path class="st1" d="M609.7,588.7c-4.2-3.3-9.6-5-16-5h-15.6c-7.5,0-7.5-3.2-7.5-4.7v-2.4c0-1.5,0-4.7,7.5-4.7h37.6v-15.6h-37.6
	c-6.4,0-11.8,1.7-16,5c-4.9,3.7-7.3,8.9-7.3,15.3v2.4c0,6.5,2.5,11.6,7.3,15.3c4.2,3.3,9.6,5,16,5h15.6c7.5,0,7.5,3.2,7.5,4.7v2.4
	c0,1.5,0,4.7-7.5,4.7h-37.4v15.6h37.5c6.4,0,11.8-1.7,16-5c4.8-3.6,7.6-9.3,7.4-15.3V604C617.3,598,614.6,592.3,609.7,588.7z"/>
<path class="st1" d="M662.5,608.6c-1.4-1.3-2.2-3.2-2.2-5.2v-31.9H682v-15.9h-21.7v-23.2h-15.8v23.2h-6.4v15.9h6.4v31.9
	c-0.2,6.2,2.3,12.2,6.8,16.5s10.5,6.6,16.7,6.5h19v-15.6h-19.1C665.8,610.8,663.9,610,662.5,608.6z"/>
<path class="st1" d="M834.7,563c-4.4-4.3-10.3-6.7-16.5-6.6h-33.5v70h15.8V572h17.6c2,0,3.9,0.8,5.3,2.2c1.4,1.3,2.3,3.2,2.2,5.1
	v11.1h15.8v-11.1C841.6,573.2,839.1,567.2,834.7,563z"/>
<path class="st1" d="M764.2,598v-18.7c0.1-6.1-2.4-12.1-6.8-16.3c-4.4-4.3-10.3-6.7-16.5-6.6H727c-6.2-0.2-12.2,2.2-16.7,6.5
	s-6.9,10.3-6.8,16.5v24c-0.2,6.2,2.3,12.2,6.8,16.5s10.5,6.6,16.7,6.5h37.2v-15.6h-37.3c-2,0-3.9-0.7-5.3-2.2
	c-1.4-1.4-2.2-3.3-2.2-5.3V598H764.2L764.2,598z M719.4,582.4v-3.1c0-2,0.8-3.9,2.2-5.2c1.4-1.4,3.4-2.2,5.4-2.2h13.9
	c2,0,3.9,0.8,5.3,2.2c1.4,1.3,2.3,3.2,2.2,5.1v3.1L719.4,582.4z"/>
<path class="st1" d="M369.6,682.8h-45.7v15.7h45.7c2.1-0.1,4.1,0.6,5.7,2c1.4,1.4,2.1,3.3,1.9,5.3v8c0,2-0.8,3.9-2.2,5.3
	c-1.4,1.4-3.3,2.2-5.2,2.1h-23.1c-6.2-0.1-12.1,2.3-16.5,6.6c-4.5,4.2-6.9,10.2-6.8,16.3v32.4h68.7v-15.7h-52.9v-16.7
	c0-1.9,0.8-3.8,2.2-5.1c1.4-1.4,3.2-2.2,5.2-2.2h23c6.2,0.2,12.2-2.2,16.6-6.5c4.5-4.3,6.9-10.3,6.7-16.5v-8.1
	c0.2-6.2-2.3-12.2-6.8-16.5C381.8,685,375.8,682.7,369.6,682.8z"/>
<path class="st1" d="M457.9,683.2h-16.6c-7.2-0.1-14.2,2.8-19.3,7.9c-5.2,4.9-8.2,11.8-8.1,19v39.5c-0.1,7.2,2.8,14.1,8,19.1
	c5.1,5.1,12.1,7.9,19.4,7.8h16.6c7.3,0.1,14.2-2.7,19.4-7.8c5.2-5,8.1-11.9,8-19.1v-39.5c-0.1-3.6-0.9-7.1-2.4-10.3
	C478,688.8,469.6,683.2,457.9,683.2z M462.1,759.8c-1.3,0.7-2.7,1-4.1,1.2h-16.7c-1.4-0.1-2.9-0.5-4.1-1.2c-2.9-0.9-5.2-3.2-6.2-6.1
	c-0.7-1.2-1-2.6-1.1-4v-39.5c0.1-1.4,0.5-2.8,1.2-4c0.6-1.4,1.4-2.7,2.4-3.8c1.1-1,2.4-1.8,3.8-2.3c1.3-0.7,2.7-1,4.1-1.2h16.7
	c1.4,0.1,2.9,0.5,4.1,1.2c1.4,0.6,2.7,1.4,3.9,2.3c1,1.1,1.8,2.4,2.4,3.8c0.7,1.2,1,2.6,1.2,4v39.5c-0.1,1.4-0.5,2.8-1.1,4
	c-0.6,1.4-1.4,2.7-2.4,3.8C464.8,758.5,463.5,759.2,462.1,759.8z"/>
<path class="st1" d="M552.4,682.8h-45.7v15.7h45.7c2.1-0.1,4.1,0.6,5.7,2c1.4,1.4,2.1,3.4,1.9,5.3v8c0,2-0.8,3.9-2.2,5.3
	c-1.4,1.4-3.3,2.1-5.2,2.1h-23.1c-6.1-0.1-12.1,2.3-16.4,6.6c-4.5,4.2-6.9,10.2-6.8,16.3v32.4H575v-15.7h-53v-16.7
	c0-1.9,0.8-3.8,2.2-5.1c1.4-1.4,3.2-2.2,5.2-2.2h23c6.2,0.1,12.1-2.2,16.6-6.5s6.9-10.3,6.8-16.5v-8.1c0.2-6.2-2.3-12.2-6.8-16.5
	C564.5,685,558.6,682.7,552.4,682.8z"/>
<polygon class="st2" points="449.5,292.5 449.5,321.5 480.4,321.5 480.4,344.4 420,344.4 420,373.4 480.4,373.4 480.4,476 
	360.2,476 360.2,207.8 480.4,207.8 480.4,243.4 383.5,243.4 383.5,282.5 414.4,282.5 414.4,271.4 494.9,271.4 494.9,292.5 "/>
<polygon class="st3" points="629.6,207.8 629.6,476 509.5,476 509.5,373.4 569.9,373.4 569.9,344.4 509.5,344.4 509.5,321.5 
	540.4,321.5 540.4,292.5 494.9,292.5 494.9,271.4 575.3,271.4 575.3,282.5 606.4,282.5 606.4,243.4 509.5,243.4 509.5,207.8 "/>
<polygon class="st1" points="606.4,243.4 606.4,282.5 575.3,282.5 575.3,271.4 414.4,271.4 414.4,282.5 383.5,282.5 383.5,243.4 
	480.4,243.4 480.4,207.8 509.5,207.8 509.5,243.4 "/>
<polygon class="st1" points="569.9,344.4 569.9,373.4 509.5,373.4 509.5,476 480.4,476 480.4,373.4 420,373.4 420,344.4 
	480.4,344.4 480.4,321.5 449.5,321.5 449.5,292.5 540.4,292.5 540.4,321.5 509.5,321.5 509.5,344.4 "/>
<path class="st1" d="M590.7,300.3c-1.4,1.7-4,2-5.7,0.6s-2-3.9-0.7-5.6l0,0c1.4-1.7,4-2,5.7-0.6C591.9,296,592.2,298.5,590.7,300.3
	C590.8,300.3,590.8,300.3,590.7,300.3z M619.1,310.6c-2.4,2.9-6.6,3.4-9.6,1c-2.9-2.3-3.4-6.5-1.1-9.4c0,0,0,0,0.1-0.1
	c2.4-2.9,6.6-3.4,9.5-1.1C621,303.4,621.4,307.7,619.1,310.6L619.1,310.6L619.1,310.6z"/>
<ellipse transform="matrix(1 -7.679147e-03 7.679147e-03 1 -1.9306 5.0006)" class="st1" cx="650.2" cy="253.9" rx="8.8" ry="8.7"/>
<ellipse transform="matrix(1 -9.075200e-03 9.075200e-03 1 -1.9562 6.3292)" class="st1" cx="696.4" cy="218.7" rx="10.9" ry="10.9"/>
<ellipse transform="matrix(0.3486 -0.9373 0.9373 0.3486 276.2908 744.5924)" class="st1" cx="673.8" cy="173.5" rx="14.7" ry="14.8"/>
<path class="st1" d="M607.9,722.7c0,0,0.1,15.5,0.1,15.5c11.7,0,23.3,0.2,35-0.1c2.9-0.1,6.1,0.5,7.8,2.9c1.3,1.7,1.5,4,1.6,6.2
	c0.3,5-0.1,11.3-4.8,13.2c-1.5,0.6-3.1,0.6-4.7,0.6c-14.6,0-29.1,0-43.7,0c0,5.2,0,10.3,0,15.5c13.6,0,27.3,0.1,40.9,0.1
	c7.9,0,15.2-0.8,21.1-6.5c0.4-0.4,0.7-0.9,1.1-1.3c3.7-4.1,5.6-9.1,5.6-15.1v-8.1c0-5.9-1.9-11-5.6-15.1c3.7-4.1,5.6-9.1,5.6-15.1
	v-8.1c0-6.6-2.3-12.1-6.7-16.4c-4.4-4.3-10-6.5-16.5-6.5h-45.5V700h45.5c2.4,0,4.2,0.6,5.7,2c1.4,1.3,2,3,1.9,5.3v8
	c-0.1,2.1-0.8,3.9-2.2,5.3c-1.4,1.4-3.1,2.1-5.1,2.1c-0.1,0-0.1,0-0.2,0"/>
</svg>
